<?xml version="1.0" standalone="no"?>
<!DOCTYPE svg PUBLIC "-//W3C//DTD SVG 20010904//EN"
 "http://www.w3.org/TR/2001/REC-SVG-20010904/DTD/svg10.dtd">
<svg version="1.0" xmlns="http://www.w3.org/2000/svg"
 width="580.000000pt" height="386.000000pt" viewBox="0 0 580.000000 386.000000"
 preserveAspectRatio="xMidYMid meet">

<g transform="translate(0.000000,386.000000) scale(0.100000,-0.100000)"
fill="#000000" stroke="none">
<path d="M2723 2783 c-595 -489 -729 -603 -745 -636 -28 -60 -41 -151 -35
-250 28 -422 30 -437 55 -477 31 -49 51 -61 347 -200 44 -20 177 -83 296 -139
118 -55 227 -101 242 -101 22 0 116 85 502 456 399 383 475 460 475 483 0 31
-22 66 -38 60 -6 -2 -212 -195 -458 -429 -247 -234 -459 -433 -471 -444 -24
-18 -24 -18 -231 86 -114 57 -250 124 -302 148 -251 114 -249 113 -258 217
l-5 64 54 -24 c30 -13 195 -91 368 -172 312 -147 359 -163 384 -132 7 7 220
213 475 456 282 270 462 450 462 461 0 33 -20 72 -34 68 -8 -2 -225 -202 -481
-445 -257 -244 -473 -443 -480 -443 -7 0 -58 24 -112 53 -54 29 -208 104 -343
166 -247 115 -285 137 -301 179 -11 27 -24 232 -15 232 6 0 34 -13 306 -140
85 -39 212 -99 282 -131 69 -32 140 -59 157 -59 26 0 93 57 456 381 235 210
431 392 437 405 8 18 8 28 -3 45 -10 14 -146 81 -384 190 -338 154 -375 168
-427 169 l-57 0 -118 -97z"/>
</g>
</svg>
